<svg width="21" height="20" viewBox="0 0 21 20" fill="none" xmlns="http://www.w3.org/2000/svg">
<path d="M14.5077 4.26748L16.6427 6.4025M15.8805 2.3867L10.1052 8.16196C9.80717 8.46001 9.60398 8.83962 9.52129 9.2529L8.98724 11.9232L11.6576 11.3892C12.0708 11.3065 12.4505 11.1033 12.7485 10.8053L18.5238 5.03006C19.2538 4.30012 19.2538 3.11665 18.5238 2.38671C17.7938 1.65677 16.6103 1.65676 15.8805 2.3867V2.3867Z" stroke="black" stroke-width="2.0168" stroke-linecap="round" stroke-linejoin="round"/>
<path d="M17.0544 13.94V16.9652C17.0544 18.0791 16.1515 18.982 15.0376 18.982H3.94522C2.83137 18.982 1.92842 18.0791 1.92842 16.9652V5.87285C1.92842 4.759 2.83137 3.85605 3.94522 3.85605H6.97042" stroke="black" stroke-width="2.0168" stroke-linecap="round" stroke-linejoin="round"/>
</svg>
