<svg width="21" height="20" viewBox="0 0 21 20" fill="none" xmlns="http://www.w3.org/2000/svg">
<g clip-path="url(#clip0_110_214)">
<path d="M14.5076 4.26746L16.6426 6.40248M15.8804 2.38668L10.1051 8.16194C9.80711 8.45999 9.60392 8.8396 9.52123 9.25288L8.98718 11.9232L11.6575 11.3892C12.0707 11.3065 12.4504 11.1033 12.7484 10.8053L18.5237 5.03004C19.2537 4.3001 19.2537 3.11663 18.5237 2.38669C17.7937 1.65675 16.6102 1.65674 15.8804 2.38668Z" stroke="#85A6F3" stroke-width="2.0168" stroke-linecap="round" stroke-linejoin="round"/>
<path d="M17.0544 13.94V16.9652C17.0544 18.0791 16.1515 18.982 15.0376 18.982H3.94527C2.83142 18.982 1.92847 18.0791 1.92847 16.9652V5.87288C1.92847 4.75903 2.83142 3.85608 3.94527 3.85608H6.97047" stroke="#85A6F3" stroke-width="2.0168" stroke-linecap="round" stroke-linejoin="round"/>
</g>
<defs>
<clipPath id="clip0_110_214">
<rect width="21" height="20" fill="white"/>
</clipPath>
</defs>
</svg>
