<svg width="23" height="24" viewBox="0 0 23 24" fill="none" xmlns="http://www.w3.org/2000/svg">
<path d="M10.35 13.15C10.35 12.845 10.4712 12.5525 10.6868 12.3368C10.9025 12.1212 11.195 12 11.5 12C11.805 12 12.0975 12.1212 12.3132 12.3368C12.5288 12.5525 12.65 12.845 12.65 13.15V16.6C12.65 16.905 12.5288 17.1975 12.3132 17.4132C12.0975 17.6288 11.805 17.75 11.5 17.75C11.195 17.75 10.9025 17.6288 10.6868 17.4132C10.4712 17.1975 10.35 16.905 10.35 16.6V13.15ZM11.5 6.825C11.0425 6.825 10.6037 7.00674 10.2802 7.33024C9.95674 7.65374 9.775 8.0925 9.775 8.55C9.775 9.0075 9.95674 9.44626 10.2802 9.76976C10.6037 10.0933 11.0425 10.275 11.5 10.275C11.9575 10.275 12.3963 10.0933 12.7198 9.76976C13.0433 9.44626 13.225 9.0075 13.225 8.55C13.225 8.0925 13.0433 7.65374 12.7198 7.33024C12.3963 7.00674 11.9575 6.825 11.5 6.825ZM0 12C0 8.95001 1.2116 6.02494 3.36827 3.86827C5.52494 1.7116 8.45001 0.5 11.5 0.5C14.55 0.5 17.4751 1.7116 19.6317 3.86827C21.7884 6.02494 23 8.95001 23 12C23 15.05 21.7884 17.9751 19.6317 20.1317C17.4751 22.2884 14.55 23.5 11.5 23.5C8.45001 23.5 5.52494 22.2884 3.36827 20.1317C1.2116 17.9751 0 15.05 0 12ZM11.5 2.8C9.06001 2.8 6.71995 3.76928 4.99462 5.49462C3.26928 7.21995 2.3 9.56001 2.3 12C2.3 14.44 3.26928 16.78 4.99462 18.5054C6.71995 20.2307 9.06001 21.2 11.5 21.2C13.94 21.2 16.28 20.2307 18.0054 18.5054C19.7307 16.78 20.7 14.44 20.7 12C20.7 9.56001 19.7307 7.21995 18.0054 5.49462C16.28 3.76928 13.94 2.8 11.5 2.8Z" fill="black"/>
</svg>
