<svg width="27" height="27" viewBox="0 0 27 27" fill="none" xmlns="http://www.w3.org/2000/svg">
<g opacity="0.5">
<path fill-rule="evenodd" clip-rule="evenodd" d="M12.15 0C18.8603 0 24.3 5.43974 24.3 12.15C24.3 15.0185 23.306 17.6547 21.6436 19.7332L26.6046 24.6954C27.1318 25.2226 27.1318 26.0774 26.6046 26.6046C26.1179 27.0912 25.3522 27.1287 24.8226 26.7169L24.6954 26.6046L19.7332 21.6436C17.6547 23.306 15.0185 24.3 12.15 24.3C5.43974 24.3 0 18.8603 0 12.15C0 5.43974 5.43974 0 12.15 0V0ZM12.15 2.7C6.93091 2.7 2.7 6.93091 2.7 12.15C2.7 17.3691 6.93091 21.6 12.15 21.6C17.3691 21.6 21.6 17.3691 21.6 12.15C21.6 6.93091 17.3691 2.7 12.15 2.7Z" fill="black"/>
</g>
</svg>
